<svg width="530" height="529" viewBox="0 0 530 529" fill="none" xmlns="http://www.w3.org/2000/svg">
<path d="M263.942 326.217C221.887 326.217 187.766 335.122 187.766 345.966C187.766 356.899 221.887 365.804 263.942 365.804C301.413 365.804 332.624 358.75 338.972 349.493C339.765 348.347 340.118 347.2 340.118 346.054C340.118 335.122 305.998 326.217 263.942 326.217ZM263.942 348.787C239.696 348.787 220.123 345.878 220.123 342.263C220.123 342.263 220.123 342.175 220.123 341.999C220.123 341.91 220.123 341.91 220.211 341.822C220.211 341.822 220.211 341.734 220.3 341.734C221.975 338.384 240.931 335.739 263.942 335.739C286.16 335.739 304.499 338.207 307.32 341.381C307.585 341.646 307.673 341.91 307.673 342.175V342.263C307.761 345.878 288.1 348.787 263.942 348.787Z" fill="#F2E9DD"/>
<path d="M172.601 332.477H99.2467C97.3952 332.477 95.5437 333.094 94.0449 334.24L65.8316 356.37C64.5091 357.428 65.2144 359.544 66.8896 359.544H144.388C146.328 359.544 148.267 358.75 149.678 357.428L173.395 334.504C174.188 333.799 173.659 332.477 172.601 332.477Z" fill="#F2E9DD"/>
<path d="M463.64 332.477H390.197C388.345 332.477 386.494 333.094 384.995 334.24L356.782 356.37C355.459 357.428 356.164 359.544 357.84 359.544H435.338C437.278 359.544 439.217 358.75 440.628 357.428L464.345 334.504C465.227 333.799 464.698 332.477 463.64 332.477Z" fill="#F2E9DD"/>
<path d="M263.942 322.602C221.887 322.602 187.766 331.506 187.766 342.351C187.766 353.284 221.887 362.188 263.942 362.188C301.413 362.188 332.624 355.135 338.972 345.878C339.765 344.731 340.118 343.585 340.118 342.439C340.118 331.506 305.998 322.602 263.942 322.602ZM263.942 345.172C239.696 345.172 220.123 342.263 220.123 338.648C220.123 338.648 220.123 338.56 220.123 338.383C220.123 338.295 220.123 338.295 220.211 338.207C220.211 338.207 220.211 338.119 220.3 338.119C221.975 334.769 240.931 332.124 263.942 332.124C286.16 332.124 304.499 334.592 307.32 337.766C307.585 338.031 307.673 338.295 307.673 338.56V338.648C307.761 342.263 288.1 345.172 263.942 345.172Z" fill="#CF8748"/>
<path d="M338.972 345.877C332.624 355.135 301.501 362.188 263.942 362.188C221.887 362.188 187.766 353.283 187.766 342.351C187.766 342.351 200.991 358.309 261.297 358.309C313.139 358.397 334.035 348.61 338.972 345.877Z" fill="#CF8748"/>
<path d="M307.32 337.766C304.411 334.592 286.072 332.124 263.942 332.124C240.842 332.124 221.975 334.769 220.3 338.119C221.093 336.179 226.383 329.479 263.942 329.479C298.503 329.479 305.821 335.474 307.32 337.766Z" fill="#CF8748"/>
<path d="M173.219 332.477L157.789 222.092C157.613 220.946 156.643 220.064 155.409 220.064H134.602C133.191 220.064 132.045 221.299 132.221 222.798L137.423 264.5C137.599 266.176 136.365 267.586 134.69 267.586H110.885C109.386 267.586 108.152 266.44 108.063 264.941L106.124 222.445C106.036 221.122 104.978 220.153 103.743 220.153H84.2584C82.8478 220.153 81.7898 221.299 81.8779 222.621L84.5229 295.271C84.6111 297.563 86.5508 299.414 88.8431 299.414H141.831L145.975 332.653H173.219V332.477Z" fill="#341E0C"/>
<path d="M464.257 332.477L448.828 222.092C448.651 220.946 447.681 220.064 446.447 220.064H425.64C424.229 220.064 423.083 221.299 423.259 222.798L428.461 264.5C428.637 266.176 427.403 267.586 425.728 267.586H401.923C400.424 267.586 399.19 266.44 399.102 264.941L397.162 222.445C397.074 221.122 396.016 220.153 394.781 220.153H375.385C373.974 220.153 372.916 221.299 373.004 222.621L375.649 295.271C375.737 297.563 377.677 299.414 379.969 299.414H432.958L437.101 332.653H464.257V332.477Z" fill="#341E0C"/>
<path d="M157.172 223.238L145.534 355.135C145.358 357.604 143.242 359.544 140.773 359.544H123.316C120.406 359.544 118.202 356.987 118.555 354.166L125.873 292.361L73.5899 293.242C70.6804 293.242 68.4762 290.686 69.0052 287.864L69.1816 286.718L81.1723 222.445C81.5249 220.681 83.0238 219.359 84.8753 219.359H101.539C103.831 219.359 105.594 221.475 105.242 223.767L98.1003 264.324C97.8358 265.999 99.0701 267.409 100.745 267.409H125.696L131.515 222.356C131.78 220.593 133.279 219.271 135.042 219.271H153.645C155.673 219.359 157.348 221.21 157.172 223.238Z" fill="#CF8748"/>
<path d="M126.226 286.718L125.785 292.36L73.502 293.242C70.5925 293.242 68.3884 290.685 68.9174 287.864L69.0937 286.718H126.226V286.718Z" fill="#CF8748"/>
<path d="M157.172 223.238L145.534 355.135C145.358 357.604 143.242 359.543 140.773 359.543H138.128L151.97 219.358H153.645C155.673 219.358 157.348 221.21 157.172 223.238Z" fill="#CF8748"/>
<path d="M98.0125 264.412C97.748 266.087 98.9823 267.498 100.657 267.498H95.5438C93.6923 267.498 92.1935 265.823 92.5461 263.971L100.393 219.447H101.539C103.831 219.447 105.595 221.563 105.242 223.856L98.0125 264.412Z" fill="#CF8748"/>
<path d="M448.122 223.238L436.484 355.135C436.308 357.604 434.192 359.544 431.723 359.544H414.266C411.357 359.544 409.152 356.987 409.505 354.166L416.823 292.361L364.54 293.242C361.631 293.242 359.426 290.686 359.955 287.864L360.132 286.718L372.122 222.445C372.475 220.681 373.974 219.359 375.825 219.359H392.489C394.781 219.359 396.545 221.475 396.192 223.767L389.05 264.324C388.786 265.999 390.02 267.409 391.695 267.409H416.647L422.466 222.356C422.73 220.593 424.229 219.271 425.992 219.271H444.595C446.711 219.359 448.387 221.21 448.122 223.238Z" fill="#CF8748"/>
<path d="M417.264 286.718L416.823 292.36L364.54 293.242C361.631 293.242 359.426 290.685 359.955 287.864L360.132 286.718H417.264V286.718Z" fill="#CF8748"/>
<path d="M448.122 223.238L436.484 355.135C436.308 357.604 434.192 359.543 431.723 359.543H429.078L442.92 219.358H444.595C446.711 219.358 448.387 221.21 448.122 223.238Z" fill="#CF8748"/>
<path d="M389.05 264.412C388.786 266.087 390.02 267.498 391.695 267.498H386.582C384.73 267.498 383.231 265.823 383.584 263.971L391.431 219.447H392.577C394.869 219.447 396.633 221.563 396.28 223.856L389.05 264.412Z" fill="#CF8748"/>
<path opacity="0.28" d="M229.116 250.128L211.042 341.822C210.072 346.759 213.246 351.432 217.566 351.432H313.315C317.547 351.432 320.721 346.935 319.928 342.174L305.116 250.481C304.499 246.778 301.766 244.133 298.503 244.133H235.729C232.555 244.045 229.822 246.602 229.116 250.128Z" fill="#CF8748"/>
<path d="M310.758 255.86L319.487 284.867C319.663 285.484 320.28 285.837 320.898 285.572C321.338 285.396 321.691 284.867 321.515 284.338L315.784 254.626C315.431 253.039 313.668 252.157 312.169 252.774C311.023 253.303 310.406 254.538 310.758 255.86Z" fill="#FEC272"/>
<path d="M294.271 266.352L299.914 288.746C300.002 289.187 300.443 289.363 300.796 289.275C301.148 289.187 301.325 288.834 301.236 288.482L297.622 265.646C297.445 264.588 296.299 263.883 295.241 264.324C294.536 264.677 294.095 265.47 294.271 266.352Z" fill="#FEC272"/>
<path d="M220.74 258.681L213.422 280.987C213.334 281.428 212.805 281.604 212.453 281.428C212.1 281.252 211.924 280.899 212.012 280.546L217.302 257.711C217.566 256.653 218.801 256.036 219.77 256.477C220.652 256.918 221.005 257.799 220.74 258.681Z" fill="#FEC272"/>
<path d="M235.288 265.559L225.766 306.997C225.677 307.438 225.237 307.614 224.884 307.526C224.531 307.438 224.355 307.085 224.443 306.733L231.937 264.853C232.114 263.795 233.26 263.09 234.318 263.531C235.111 263.795 235.552 264.677 235.288 265.559Z" fill="#FEC272"/>
<path d="M255.478 270.407L250.893 300.472C250.805 300.913 250.364 301.178 250.012 301.001C249.659 300.913 249.483 300.56 249.483 300.208L251.951 269.878C252.128 268.82 253.186 268.115 254.244 268.468C255.125 268.644 255.654 269.526 255.478 270.407Z" fill="#FEC272"/>
<path d="M279.107 269.791L280.253 317.489C280.253 317.93 279.9 318.194 279.459 318.194C279.107 318.106 278.842 317.842 278.842 317.489L275.58 269.791C275.58 268.645 276.55 267.851 277.608 268.027C278.489 268.204 279.107 268.997 279.107 269.791Z" fill="#FEC272"/>
<path d="M187.502 226.501C186.532 225.354 185.826 224.208 185.297 223.062L183.27 209.484L187.942 213.805L187.502 226.501Z" fill="#4F381F"/>
<path d="M319.046 231.085C319.046 231.085 316.137 237.168 309.789 243.957C301.854 252.421 288.452 262.031 268.527 262.031C254.508 262.031 244.104 257.359 236.698 251.716C225.06 242.899 220.476 231.614 220.476 231.614L319.046 231.085Z" fill="#341E0C"/>
<path d="M319.046 231.085C319.046 231.085 316.137 237.168 309.789 243.957C303 246.602 294.624 248.806 284.22 250.217C263.766 252.95 247.807 252.774 236.698 251.716C225.06 242.899 220.476 231.614 220.476 231.614L319.046 231.085Z" fill="#341E0C"/>
<path d="M350.081 208.955C350.081 208.955 349.552 214.509 347.789 221.386C347.524 222.356 347.083 223.502 346.378 224.56C344.526 227.558 341 230.82 335.269 233.906C334.299 234.435 333.153 234.964 332.007 235.493C331.125 235.934 330.243 236.287 329.274 236.727C327.951 237.256 326.629 237.785 325.218 238.314C320.281 240.078 314.462 241.577 307.585 242.987C307.056 243.075 306.615 243.164 306.086 243.252C304.763 243.516 303.176 243.693 301.501 243.869C294.448 244.662 285.102 245.191 275.139 245.368C273.288 245.368 271.436 245.456 269.585 245.456C260.151 245.544 250.629 245.28 242.341 244.839C240.578 244.751 238.815 244.662 237.228 244.486C232.378 244.133 228.146 243.604 225.061 242.987C220.564 242.106 216.508 241.136 212.894 240.078C211.395 239.637 209.984 239.196 208.573 238.755C197.641 235.14 191.028 230.732 187.59 226.676C187.061 226.059 186.62 225.53 186.267 224.913C185.915 224.384 185.562 223.767 185.386 223.238C185.121 222.621 184.857 222.092 184.768 221.475C183.975 218.212 183.358 214.862 183.093 212.305C182.741 209.396 182.652 207.456 182.652 207.456L266.411 213.716L350.169 209.043L350.081 208.955Z" fill="#7F664A"/>
<path d="M349.993 208.779C349.993 209.396 349.552 210.189 348.758 211.159C346.554 213.716 341.264 217.507 332.271 220.946C331.125 221.386 329.891 221.827 328.568 222.268C327.951 222.444 327.334 222.709 326.717 222.885C325.394 223.326 323.984 223.767 322.485 224.12C317.459 225.53 311.64 226.853 304.94 227.823C303.353 228.087 301.677 228.352 299.914 228.528C292.508 229.498 284.22 230.115 274.963 230.291C273.2 230.291 271.348 230.379 269.497 230.379H269.408C259.975 230.379 251.246 229.939 243.399 229.233C241.636 229.057 239.873 228.881 238.197 228.704C229.557 227.734 221.887 226.324 215.274 224.737C213.775 224.384 212.276 223.943 210.866 223.591C197.729 219.976 189.089 215.479 185.121 211.776C184.328 211.071 183.71 210.277 183.27 209.66C182.741 208.867 182.476 208.161 182.476 207.456C182.476 201.196 207.163 187.883 269.849 187.883C332.536 187.795 349.993 204.458 349.993 208.779Z" fill="#341E0C"/>
<path d="M233.701 195.025L187.854 213.804C186.091 212.658 183.622 210.19 183.181 209.484L232.202 194.231L233.701 195.025Z" fill="#341E0C"/>
<path d="M349.993 208.867C349.993 209.396 349.552 210.189 348.759 211.159L301.677 195.025L303.176 194.319L349.993 208.867Z" fill="#341E0C"/>
<path d="M241.46 199.874L215.274 224.649C213.775 224.296 212.276 223.856 210.866 223.503L239.873 199.786L241.46 199.874Z" fill="#341E0C"/>
<path d="M255.831 202.783L243.399 229.233C241.636 229.057 239.873 228.881 238.198 228.704L254.244 202.695L255.831 202.783Z" fill="#341E0C"/>
<path d="M305.028 227.911C303.441 228.175 301.677 228.44 300.002 228.616L287.835 202.783L289.51 202.695L305.028 227.911Z" fill="#341E0C"/>
<path d="M274.963 230.379C273.2 230.379 271.348 230.467 269.497 230.467H269.408L271.524 204.458L273.2 204.37L274.963 230.379Z" fill="#341E0C"/>
<path d="M332.183 220.946C331.037 221.387 329.802 221.828 328.48 222.269L296.828 199.874L298.503 199.786L332.183 220.946Z" fill="#341E0C"/>
<path d="M275.051 245.191C273.2 245.191 271.348 245.279 269.497 245.279V230.379L274.963 230.291L275.051 245.191Z" fill="#4F381F"/>
<path d="M305.909 243.075C304.499 243.34 303 243.516 301.325 243.692L299.914 228.528L304.94 227.822L305.909 243.075Z" fill="#4F381F"/>
<path d="M335.181 233.818C334.211 234.347 333.065 234.876 331.919 235.405L328.568 222.18L332.183 220.945L335.181 233.818Z" fill="#4F381F"/>
<path d="M243.399 229.233L242.341 244.662C240.578 244.574 238.815 244.486 237.228 244.31L238.286 228.704L243.399 229.233Z" fill="#4F381F"/>
<path d="M215.274 224.649L212.806 239.902C211.307 239.461 209.896 239.02 208.485 238.579L210.778 223.503L215.274 224.649Z" fill="#4F381F"/>
<path d="M187.942 213.981L186.179 224.825C185.826 224.296 185.474 223.679 185.297 223.15C185.033 222.533 184.768 222.004 184.68 221.387C183.887 218.124 183.27 214.774 183.005 212.217L183.27 209.572C183.27 209.572 184.768 211.336 185.386 211.953C185.915 212.482 187.942 213.981 187.942 213.981Z" fill="#4F381F"/>
<path d="M265.705 214.951C291.659 214.951 312.698 208.99 312.698 201.637C312.698 194.285 291.659 188.324 265.705 188.324C239.752 188.324 218.713 194.285 218.713 201.637C218.713 208.99 239.752 214.951 265.705 214.951Z" fill="#341E0C"/>
<path d="M308.643 199.522C308.643 199.522 305.204 203.401 296.74 206.751C290.48 209.22 281.487 211.336 269.144 211.336C262.355 211.336 256.448 210.719 251.511 209.749C235.023 206.575 227.882 199.698 227.882 199.698C227.882 199.698 231.497 172.895 254.067 163.814C258.652 161.963 264.118 160.816 270.466 160.816C301.501 160.816 308.643 199.522 308.643 199.522Z" fill="#7F664A"/>
<path d="M251.511 209.749C235.023 206.575 227.882 199.698 227.882 199.698C227.882 199.698 231.497 172.896 254.067 163.814C249.659 167.517 245.339 174.923 244.634 187.002C243.928 195.995 246.044 203.489 251.511 209.749Z" fill="#F2E9DD"/>
<path d="M308.643 199.522C308.643 199.522 305.204 203.401 296.74 206.751C295.418 201.814 293.39 197.406 293.39 197.406C293.39 197.406 285.102 199.169 281.399 191.322C277.696 183.475 286.601 177.833 286.601 177.833C286.601 177.833 284.485 171.044 273.552 166.635C262.62 162.227 253.891 163.814 253.891 163.814C258.476 161.963 263.942 160.816 270.29 160.816C301.501 160.816 308.643 199.522 308.643 199.522Z" fill="#B7A390"/>
<path d="M273.111 182.946C274.426 182.946 275.492 181.92 275.492 180.654C275.492 179.388 274.426 178.361 273.111 178.361C271.797 178.361 270.731 179.388 270.731 180.654C270.731 181.92 271.797 182.946 273.111 182.946Z" fill="#B7A390"/>
<path d="M264.824 185.151C265.846 185.151 266.675 184.361 266.675 183.387C266.675 182.413 265.846 181.624 264.824 181.624C263.801 181.624 262.972 182.413 262.972 183.387C262.972 184.361 263.801 185.151 264.824 185.151Z" fill="#B7A390"/>
<path d="M270.378 197.053C272.375 197.053 273.993 195.474 273.993 193.527C273.993 191.579 272.375 190 270.378 190C268.382 190 266.763 191.579 266.763 193.527C266.763 195.474 268.382 197.053 270.378 197.053Z" fill="#B7A390"/>
</svg>
