<svg width="604" height="600" viewBox="0 0 604 600" fill="none" xmlns="http://www.w3.org/2000/svg">
<circle cx="302" cy="276.109" r="210.484" fill="#FFFBF5" fill-opacity="0.8"/>
<circle cx="302" cy="276.109" r="164.516" fill="#F2E9DD"/>
<path d="M295.837 483.615C276.511 503.367 249.558 515.625 219.742 515.625C184.153 515.625 152.643 498.16 133.315 471.334C123.774 497.189 98.9108 515.625 69.7419 515.625C32.3291 515.625 2 485.296 2 447.883C2 410.47 32.3291 380.141 69.7419 380.141C86.6705 380.141 102.149 386.351 114.023 396.616C120.237 343.743 165.199 302.722 219.742 302.722C256.491 302.722 288.891 321.343 308.02 349.665C323.948 336.942 344.142 329.335 366.113 329.335C406.653 329.335 441.143 355.233 453.942 391.387C463.699 385.772 475.015 382.56 487.081 382.56C522.502 382.56 551.458 410.241 553.498 445.15C557.314 443.787 561.425 443.044 565.71 443.044C585.752 443.044 602 459.292 602 479.335C602 499.377 585.752 515.625 565.71 515.625C551.885 515.625 539.866 507.895 533.739 496.522C521.731 508.336 505.257 515.625 487.081 515.625C464.658 515.625 444.827 504.533 432.773 487.537C415.858 504.866 392.242 515.625 366.113 515.625C338.065 515.625 312.913 503.228 295.837 483.615Z" fill="#F2E9DD"/>
<path d="M2 447.883C2 410.47 32.3291 380.141 69.7419 380.141C86.6705 380.141 102.149 386.351 114.023 396.616C120.237 343.743 165.199 302.722 219.742 302.722C256.491 302.722 288.891 321.343 308.02 349.665C323.948 336.942 344.142 329.335 366.113 329.335C406.653 329.335 441.143 355.233 453.942 391.387C463.699 385.772 475.015 382.56 487.081 382.56C522.502 382.56 551.458 410.241 553.498 445.15C557.314 443.787 561.425 443.044 565.71 443.044C585.752 443.044 602 459.292 602 479.335" stroke="#CF8748" stroke-width="2.06618" stroke-linecap="round"/>
<path d="M408.842 477.735C409.786 478.68 411.318 478.68 412.263 477.735L424.679 465.319C424.721 465.276 424.788 465.163 424.863 465.017C425.228 464.314 425.387 463.51 425.387 462.718V462.718L425.387 172.076L181.032 172.076L181.032 461.508L181.032 462.718C181.032 463.927 181.592 465.166 181.745 465.319L194.161 477.735C195.105 478.68 196.637 478.68 197.582 477.735L209.289 466.028L220.996 477.735C221.94 478.68 223.472 478.68 224.417 477.735L236.124 466.028L247.831 477.735C248.776 478.68 250.308 478.68 251.252 477.735L262.959 466.028L274.666 477.735C275.611 478.68 277.143 478.68 278.087 477.735L289.794 466.028L301.501 477.735C302.446 478.68 303.978 478.68 304.923 477.735L316.629 466.028L328.336 477.735C329.281 478.68 330.813 478.68 331.758 477.735L343.465 466.028L355.171 477.735C356.116 478.68 357.648 478.68 358.593 477.735L370.3 466.028L382.007 477.735C382.951 478.68 384.483 478.68 385.428 477.735L397.135 466.028L408.842 477.735Z" fill="white" stroke="#341E0C" stroke-width="1.54963"/>
<path fill-rule="evenodd" clip-rule="evenodd" d="M270.549 312.399C275.893 312.399 280.226 308.066 280.226 302.721C280.226 297.377 275.893 293.044 270.549 293.044C265.204 293.044 260.871 297.377 260.871 302.721C260.871 308.066 265.204 312.399 270.549 312.399ZM335.871 312.399C341.216 312.399 345.549 308.066 345.549 302.721C345.549 297.377 341.216 293.044 335.871 293.044C330.527 293.044 326.194 297.377 326.194 302.721C326.194 308.066 330.527 312.399 335.871 312.399Z" fill="#341E0C"/>
<path d="M343.129 364.884C334.408 352.182 319.782 343.851 303.21 343.851C286.637 343.851 272.011 352.182 263.29 364.884" stroke="#341E0C" stroke-width="2.58272" stroke-linecap="round"/>
<circle cx="224.581" cy="135.786" r="7.25806" stroke="#341E0C" stroke-width="1.54963"/>
<circle cx="495.548" cy="363.206" r="4.83871" stroke="#341E0C" stroke-width="1.54963"/>
<path d="M224.581 215.625H333.452M224.581 241.028H289.903" stroke="#7F664A" stroke-width="1.54963" stroke-linecap="round"/>
<path d="M205.226 435.786H401.194M205.226 411.593H322.806" stroke="#7F664A" stroke-width="1.54963" stroke-linecap="round"/>
<circle cx="116.919" cy="325.705" r="10.8871" stroke="#341E0C" stroke-width="1.54963"/>
<path d="M444.825 174.496H468.935M427.806 153.624V133.367" stroke="#CF8748" stroke-width="1.54963" stroke-linecap="round"/>
<path d="M443.407 157.914L459.444 141.877" stroke="#CF8748" stroke-width="1.54963" stroke-linecap="round"/>
<ellipse cx="303.21" cy="526.512" rx="122.177" ry="10.8871" fill="#341E0C"/>
</svg>
